<svg xmlns="http://www.w3.org/2000/svg" width="96" height="96" viewBox="0 0 96 96" fill="none">
  <defs>
    <linearGradient id="g" x1="0" y1="0" x2="96" y2="96" gradientUnits="userSpaceOnUse">
      <stop stop-color="#60A5FA"/>
      <stop offset="1" stop-color="#1D4ED8"/>
    </linearGradient>
  </defs>
  <rect width="96" height="96" rx="26" fill="url(#g)"/>
  <g transform="translate(24 24) scale(2)" fill="none" stroke="#FFFFFF" stroke-width="2" stroke-linecap="round" stroke-linejoin="round">
    <path d="M19 17h2c.6 0 1-.4 1-1v-3c0-.9-.7-1.7-1.5-1.9C18.7 10.6 16 10 16 10s-1.3-1.4-2.2-2.3c-.5-.4-1.1-.7-1.8-.7H5c-.6 0-1.1.4-1.4.9l-1.5 2.8A2 2 0 0 0 2 12v4c0 .6.4 1 1 1h2"/>
    <path d="M7 17a2 2 0 1 0 0-4 2 2 0 0 0 0 4Z"/>
    <path d="M9 17h6"/>
    <path d="M17 17a2 2 0 1 0 0-4 2 2 0 0 0 0 4Z"/>
  </g>
</svg>
