<svg xmlns="http://www.w3.org/2000/svg" width="96" height="96" viewBox="0 0 96 96" fill="none">
  <defs>
    <linearGradient id="g" x1="0" y1="0" x2="96" y2="96" gradientUnits="userSpaceOnUse">
      <stop stop-color="#F472B6"/>
      <stop offset="1" stop-color="#BE185D"/>
    </linearGradient>
  </defs>
  <rect width="96" height="96" rx="26" fill="url(#g)"/>
  <g transform="translate(24 24) scale(2)" fill="none" stroke="#FFFFFF" stroke-width="2" stroke-linecap="round" stroke-linejoin="round">
    <path d="M20.38 3.46 16 2a4 4 0 0 1-8 0L3.62 3.46a2 2 0 0 0-1.34 2.23l.58 3.47a1 1 0 0 0 .99.84H6v10c0 1.1.9 2 2 2h8a2 2 0 0 0 2-2V10h2.15a1 1 0 0 0 .99-.84l.58-3.47a2 2 0 0 0-1.34-2.23Z"/>
  </g>
</svg>
